<?xml version="1.0" encoding="UTF-8"?>
<!DOCTYPE svg PUBLIC "-//W3C//DTD SVG 1.1//EN" "http://www.w3.org/Graphics/SVG/1.1/DTD/svg11.dtd">
<!-- Creator: CorelDRAW X7 -->
<svg xmlns="http://www.w3.org/2000/svg" xml:space="preserve" width="100px" height="100px" version="1.1" style="shape-rendering:geometricPrecision; text-rendering:geometricPrecision; image-rendering:optimizeQuality; fill-rule:evenodd; clip-rule:evenodd"
viewBox="0 0 1000 1000"
 xmlns:xlink="http://www.w3.org/1999/xlink">
 <defs>
  <style type="text/css">
   <![CDATA[
    .fil0 {fill:white}
    .fil1 {fill:white;fill-rule:nonzero}
   ]]>
  </style>
 </defs>
 <g id="Layer_x0020_1">
  <metadata id="CorelCorpID_0Corel-Layer"/>
  <polygon class="fil0" points="650,500 500,716 693,994 994,994 "/>
  <path class="fil1" d="M650 511l-142 205 188 271 286 0 -332 -476zm-155 201l150 -215c1,-1 1,-2 2,-2 3,-2 6,-1 8,1l344 494c1,1 1,2 1,4 0,3 -3,6 -6,6l-301 0 0 0c-2,0 -4,-1 -5,-3l-193 -277c-1,-2 -2,-5 0,-8z"/>
  <path class="fil1" d="M999 10l-687 987c-1,2 -3,3 -5,3l0 0 -301 0c-3,0 -6,-3 -6,-6 0,-2 0,-3 1,-4l341 -490 -341 -490c-2,-3 -1,-7 2,-9 1,0 2,-1 3,-1l0 0 301 0c2,0 4,1 5,3l188 270 188 -270c1,-2 3,-3 5,-3l0 0 301 0c3,0 6,3 6,6 0,2 0,3 -1,4zm-695 977l678 -974 -286 0 -191 274c0,1 -1,2 -1,2 -3,2 -7,1 -9,-1l-191 -275 -286 0 337 483c1,2 1,5 0,8l-337 483 286 0z"/>
 </g>
</svg>
